<?xml version="1.0"?>
<svg xmlns="http://www.w3.org/2000/svg" xmlnsXlink="http://www.w3.org/1999/xlink" xmlnsSvgjs="http://svgjs.com/svgjs" version="1.1" width="512" height="512" x="0" y="0" viewBox="0 0 512 512" style="enable-background:new 0 0 512 512" xmlSpace="preserve" class=""><g><g xmlns="http://www.w3.org/2000/svg"><path d="m256 512c-44.112 0-80-35.888-80-80v-160c0-44.112 35.888-80 80-80s80 35.888 80 80v160c0 44.112-35.888 80-80 80zm0-288c-26.467 0-48 21.533-48 48v160c0 26.467 21.533 48 48 48 26.468 0 48-21.533 48-48v-160c0-26.467-21.532-48-48-48z" fill="#544759" data-original="#000000" style=""/><path d="m256 160c-44.112 0-80-35.888-80-80s35.888-80 80-80 80 35.888 80 80-35.888 80-80 80zm0-128c-26.467 0-48 21.533-48 48s21.533 48 48 48 48-21.533 48-48-21.533-48-48-48z" fill="#544759" data-original="#000000" style=""/></g></g></svg>
