<?xml version="1.0"?>
<svg xmlns="http://www.w3.org/2000/svg" xmlnsXlink="http://www.w3.org/1999/xlink" xmlnsSvgjs="http://svgjs.com/svgjs" version="1.1" width="512" height="512" x="0" y="0" viewBox="0 0 512 512" style="enable-background:new 0 0 512 512" xmlSpace="preserve" class=""><g><g xmlns="http://www.w3.org/2000/svg" id="XMLID_1_"><g id="XMLID_3290_"><path id="XMLID_3293_" d="m502 222.5h-34v-49.5c0-10.477-8.523-19-19-19h-40v-13c0-10.477-8.523-19-19-19h-41c-10.477 0-19 8.523-19 19v81h-29.001c-5.523 0-10 4.477-10 10s4.477 10 10 10h29.001v28h-148v-28h29.001c5.523 0 10-4.477 10-10s-4.477-10-10-10h-29.001v-81c0-10.477-8.523-19-19-19h-41c-10.477 0-19 8.523-19 19v13h-40c-10.477 0-19 8.523-19 19v49h-34c-5.523 0-10 4.477-10 10v.5 47 .5c0 5.523 4.477 10 10 10h34v49c0 10.477 8.523 19 19 19h40v13c0 10.477 8.523 19 19 19h41c10.477 0 19-8.523 19-19v-81h148v81c0 10.477 8.523 19 19 19h41c10.477 0 19-8.523 19-19v-13h40c10.477 0 19-8.523 19-19v-49.5h34c5.523 0 10-4.477 10-10v-47c0-5.523-4.477-10-10-10zm-458 20v27h-24v-27zm20 95.5v-164h39v164zm98 32h-39v-228h39zm227 0h-39v-228h39zm59-32h-39v-164h39zm44-68.5h-24v-27h24z" fill="#544759" data-original="#000000" style=""/><path id="XMLID_3299_" d="m256.13 242c2.63 0 5.21-1.07 7.07-2.93s2.93-4.44 2.93-7.07-1.07-5.21-2.93-7.07-4.44-2.93-7.07-2.93c-2.64 0-5.21 1.07-7.07 2.93s-2.93 4.44-2.93 7.07 1.07 5.21 2.93 7.07 4.44 2.93 7.07 2.93z" fill="#544759" data-original="#000000" style=""/></g></g></g></svg>
